<svg width="15" height="15" viewBox="0 0 15 15" fill="none" xmlns="http://www.w3.org/2000/svg">
<g id="Edit_light">
<path id="Rectangle 1" d="M10.6661 4.33395L10.666 4.33394C10.6649 4.3328 10.6638 4.33166 10.6626 4.33052C10.6508 4.31867 10.6391 4.30692 10.6274 4.29527C10.4522 4.11963 10.301 3.96812 10.1326 3.86962C9.66467 3.59574 9.08533 3.59574 8.61735 3.86962C8.44904 3.96812 8.29785 4.11963 8.12257 4.29527C8.10983 4.30804 8.09696 4.32093 8.08395 4.33395L3.78816 8.62973L3.78816 8.62973C3.77714 8.64076 3.76619 8.65168 3.75533 8.66252C3.59286 8.82465 3.44903 8.96817 3.34766 9.1472C3.2463 9.32623 3.19723 9.52341 3.14179 9.74614C3.13809 9.76103 3.13435 9.77604 3.13057 9.79116L2.84204 10.9453C2.83983 10.9541 2.8376 10.963 2.83536 10.972C2.79612 11.1287 2.75421 11.296 2.74046 11.4365C2.72532 11.5913 2.72885 11.8523 2.93826 12.0617C3.14767 12.2711 3.40873 12.2747 3.56346 12.2595C3.704 12.2458 3.87134 12.2039 4.02803 12.1646C4.03696 12.1624 4.04586 12.1602 4.05472 12.158L5.20884 11.8694C5.22396 11.8656 5.23897 11.8619 5.25386 11.8582C5.47659 11.8028 5.67377 11.7537 5.8528 11.6523L5.60645 11.2172L5.8528 11.6523C6.03183 11.551 6.17535 11.4071 6.33748 11.2447C6.34832 11.2338 6.35924 11.2229 6.37027 11.2118L10.6661 6.91605C10.6791 6.90304 10.692 6.89017 10.7047 6.87743C10.8804 6.70215 11.0319 6.55096 11.1304 6.38265C11.4043 5.91467 11.4043 5.33533 11.1304 4.86735C11.0319 4.69904 10.8804 4.54785 10.7047 4.37257C10.692 4.35983 10.6791 4.34696 10.6661 4.33395Z" stroke="#17C3CE"/>
<path id="Vector 107" d="M7.8125 4.6875L9.6875 3.4375L11.5625 5.3125L10.3125 7.1875L7.8125 4.6875Z" fill="#17C3CE"/>
</g>
</svg>
